<svg width="25" height="25" viewBox="0 0 25 25" fill="none" xmlns="http://www.w3.org/2000/svg">
<path d="M17.2611 8.33331V8.43331H17.3611H22.1222V22.2847C22.1222 22.61 21.993 22.9219 21.7631 23.1519C21.5331 23.3819 21.2211 23.5111 20.8959 23.5111H4.10419C3.77893 23.5111 3.467 23.3819 3.237 23.1519C3.00701 22.9219 2.8778 22.61 2.8778 22.2847V8.43331H6.15002V9.6222H4.16669H4.06669V9.7222V22.2222V22.3222H4.16669H20.8334H20.9334V22.2222V9.7222V9.6222H20.8334H17.3611H17.2611V9.7222V11.1111C17.2611 11.2687 17.1985 11.4199 17.087 11.5314C16.9755 11.6429 16.8244 11.7055 16.6667 11.7055C16.509 11.7055 16.3578 11.6429 16.2464 11.5314C16.1349 11.4199 16.0722 11.2687 16.0722 11.1111V6.2847C16.0722 5.33728 15.6959 4.42867 15.026 3.75875C14.356 3.08883 13.4474 2.71247 12.5 2.71247C11.5526 2.71247 10.644 3.08883 9.97408 3.75875C9.30416 4.42867 8.9278 5.33728 8.9278 6.2847V8.33331V8.43331H9.0278H14.4834V9.6222H9.0278H8.9278V9.7222V11.1458C8.9278 11.3035 8.86517 11.4547 8.75369 11.5661C8.64221 11.6776 8.49102 11.7402 8.33336 11.7402C8.1757 11.7402 8.0245 11.6776 7.91302 11.5661C7.80154 11.4547 7.73891 11.3035 7.73891 11.1458V6.2847C7.73891 5.65946 7.86206 5.04034 8.10133 4.4627C8.3406 3.88505 8.6913 3.36019 9.13341 2.91808C9.57552 2.47597 10.1004 2.12527 10.678 1.886C11.2557 1.64673 11.8748 1.52358 12.5 1.52358C13.1253 1.52358 13.7444 1.64673 14.322 1.886C14.8997 2.12527 15.4245 2.47597 15.8666 2.91808C16.3088 3.36019 16.6595 3.88505 16.8987 4.4627C17.138 5.04034 17.2611 5.65946 17.2611 6.2847V8.33331Z" fill="white" stroke="white" stroke-width="0.2"/>
</svg>
